<svg id="Layer_1" height="512" viewBox="0 0 512 512" width="512" xmlns="http://www.w3.org/2000/svg" data-name="Layer 1"><path d="m97.96 143 47.07 206h40l-47.07-206z" fill="#d4e1f4"/><path d="m484.572 137.391h-381.834l-15.79-68.941a6 6 0 0 0 -5.848-4.66h-59.672v12h54.89l61.178 267.1h-15.673a6 6 0 0 0 -6 6v70.691a6 6 0 0 0 6 6h46.677v-12h-40.677v-58.688h312.853a6 6 0 0 0 5.867-4.747l43.9-205.5a6 6 0 0 0 -5.867-7.253zm-48.75 205.5h-286.015l-44.321-193.5h371.669z" fill="#0635c9"/><path d="m213.858 413.584h168.206v12h-168.206z" fill="#0635c9"/><path d="m142.238 180.47h12v15.624h-12z" fill="#0635c9" transform="matrix(.975 -.223 .223 .975 -38.295 37.849)"/><path d="m158.806 211.477h12v98.277h-12z" fill="#0635c9" transform="matrix(.975 -.223 .223 .975 -54.017 43.365)"/><g fill="#1ae5be"><path d="m404.739 390.861a28.675 28.675 0 1 0 28.674 28.675 28.707 28.707 0 0 0 -28.674-28.675zm0 45.349a16.675 16.675 0 1 1 16.674-16.674 16.694 16.694 0 0 1 -16.674 16.674z"/><path d="m219.853 419.536a28.675 28.675 0 1 0 -28.675 28.674 28.707 28.707 0 0 0 28.675-28.674zm-28.675 16.674a16.675 16.675 0 1 1 16.675-16.674 16.693 16.693 0 0 1 -16.675 16.674z"/><path d="m269.646 188.816v119.7a6 6 0 0 0 6 6h30.193a6 6 0 0 0 6-6v-119.7a6 6 0 0 0 -6-6h-30.193a6 6 0 0 0 -6 6zm12 6h18.193v107.7h-18.193z"/><path d="m207.709 314.514h30.191a6 6 0 0 0 6-6v-119.7a6 6 0 0 0 -6-6h-30.191a6 6 0 0 0 -6 6v119.7a6 6 0 0 0 6 6zm6-119.7h18.191v107.7h-18.191z"/><path d="m343.582 314.514h30.193a6 6 0 0 0 6-6v-119.7a6 6 0 0 0 -6-6h-30.193a6 6 0 0 0 -6 6v119.7a6 6 0 0 0 6 6zm6-119.7h18.193v107.7h-18.193z"/></g></svg>